<svg width="25" height="24" viewBox="0 0 25 24" fill="none" xmlns="http://www.w3.org/2000/svg">
<path d="M20.254 18.9841V10.3492C20.254 10.1915 20.2172 10.036 20.1467 9.8949C20.0762 9.75384 19.9738 9.63113 19.8476 9.53651L12.7365 4.20317C12.5607 4.07129 12.3468 4 12.127 4C11.9072 4 11.6933 4.07129 11.5175 4.20317L4.40635 9.53651C4.28018 9.63113 4.17778 9.75384 4.10725 9.8949C4.03672 10.036 4 10.1915 4 10.3492V18.9841C4 19.2536 4.10703 19.5119 4.29754 19.7025C4.48806 19.893 4.74645 20 5.01587 20H9.07937C9.34879 20 9.60718 19.893 9.7977 19.7025C9.98821 19.5119 10.0952 19.2536 10.0952 18.9841V15.9365C10.0952 15.6671 10.2023 15.4087 10.3928 15.2182C10.5833 15.0277 10.8417 14.9206 11.1111 14.9206H13.1429C13.4123 14.9206 13.6707 15.0277 13.8612 15.2182C14.0517 15.4087 14.1587 15.6671 14.1587 15.9365V18.9841C14.1587 19.2536 14.2658 19.5119 14.4563 19.7025C14.6468 19.893 14.9052 20 15.1746 20H19.2381C19.5075 20 19.7659 19.893 19.9564 19.7025C20.1469 19.5119 20.254 19.2536 20.254 18.9841Z" stroke="#262626" stroke-width="2" stroke-linecap="round" stroke-linejoin="round"/>
</svg>
