<svg width="61" height="60" viewBox="0 0 61 60" fill="none" xmlns="http://www.w3.org/2000/svg">
<rect x="0.5" width="60" height="60" rx="30" fill="white"/>
<path d="M22.068 26.88C22.764 26.88 23.328 27.096 23.76 27.528C24.192 27.96 24.408 28.524 24.408 29.22C24.408 29.916 24.192 30.48 23.76 30.912C23.328 31.344 22.764 31.56 22.068 31.56C21.372 31.56 20.808 31.344 20.376 30.912C19.944 30.48 19.728 29.916 19.728 29.22C19.728 28.524 19.944 27.96 20.376 27.528C20.808 27.096 21.372 26.88 22.068 26.88ZM30.1891 26.88C30.8851 26.88 31.4491 27.096 31.8811 27.528C32.3131 27.96 32.5291 28.524 32.5291 29.22C32.5291 29.916 32.3131 30.48 31.8811 30.912C31.4491 31.344 30.8851 31.56 30.1891 31.56C29.4931 31.56 28.9291 31.344 28.4971 30.912C28.0651 30.48 27.8491 29.916 27.8491 29.22C27.8491 28.524 28.0651 27.96 28.4971 27.528C28.9291 27.096 29.4931 26.88 30.1891 26.88ZM38.3102 26.88C39.0062 26.88 39.5702 27.096 40.0022 27.528C40.4342 27.96 40.6502 28.524 40.6502 29.22C40.6502 29.916 40.4342 30.48 40.0022 30.912C39.5702 31.344 39.0062 31.56 38.3102 31.56C37.6142 31.56 37.0502 31.344 36.6182 30.912C36.1862 30.48 35.9702 29.916 35.9702 29.22C35.9702 28.524 36.1862 27.96 36.6182 27.528C37.0502 27.096 37.6142 26.88 38.3102 26.88Z" fill="#262626"/>
</svg>
