<svg width="75" height="14" viewBox="0 0 75 14" fill="none" xmlns="http://www.w3.org/2000/svg">
<path d="M21.074 0.382L19.842 3.792H9.612L8.996 5.486H16.784C17.3707 5.486 17.8327 5.728 18.17 6.212C18.522 6.696 18.5953 7.21667 18.39 7.774L16.938 11.778C16.6887 12.4673 16.2707 13.01 15.684 13.406C15.112 13.802 14.4593 14 13.726 14H0.79L2.022 10.59H12.252L12.868 8.896H5.08C4.49333 8.896 4.024 8.654 3.672 8.17C3.33467 7.686 3.26867 7.16533 3.474 6.608L4.926 2.626C5.17533 1.93667 5.586 1.394 6.158 0.998C6.74467 0.587333 7.40467 0.382 8.138 0.382H21.074ZM38.9275 0.382L37.6955 3.792H27.4655L26.8495 5.486H34.6375C35.2242 5.486 35.6862 5.728 36.0235 6.212C36.3755 6.696 36.4489 7.21667 36.2435 7.774L34.7915 11.778C34.5422 12.4673 34.1242 13.01 33.5375 13.406C32.9655 13.802 32.3128 14 31.5795 14H18.6435L19.8755 10.59H30.1055L30.7215 8.896H22.9335C22.3468 8.896 21.8775 8.654 21.5255 8.17C21.1882 7.686 21.1222 7.16533 21.3275 6.608L22.7795 2.626C23.0288 1.93667 23.4395 1.394 24.0115 0.998C24.5982 0.587333 25.2582 0.382 25.9915 0.382H38.9275ZM36.497 14L40.633 2.626C40.8824 1.93667 41.293 1.394 41.865 0.998C42.4517 0.587333 43.1117 0.382 43.845 0.382H56.781L51.831 14H46.705L47.959 10.59H42.855L41.601 14H36.497ZM45.319 3.792L44.087 7.202H49.191L50.423 3.792H45.319ZM54.3505 14L59.3005 0.382H72.1925C72.7792 0.382 73.2412 0.624 73.5785 1.108C73.9159 1.592 73.9819 2.11267 73.7765 2.67L72.3245 6.652C72.0752 7.34133 71.6572 7.89133 71.0705 8.302C70.4985 8.698 69.8532 8.896 69.1345 8.896H61.3025L59.4545 14H54.3505ZM62.1825 5.948H67.7045L68.4745 3.792H62.9745L62.1825 5.948Z" fill="#262626"/>
</svg>
