<svg width="200" height="200" viewBox="0 0 200 200" fill="none" xmlns="http://www.w3.org/2000/svg">
<rect width="200" height="200" rx="20" fill="#262626"/>
<path d="M68.414 87.002L66.062 93.512H46.532L45.356 96.746H60.224C61.344 96.746 62.226 97.208 62.87 98.132C63.542 99.056 63.682 100.05 63.29 101.114L60.518 108.758C60.042 110.074 59.244 111.11 58.124 111.866C57.032 112.622 55.786 113 54.386 113H29.69L32.042 106.49H51.572L52.748 103.256H37.88C36.76 103.256 35.864 102.794 35.192 101.87C34.548 100.946 34.422 99.952 34.814 98.888L37.586 91.286C38.062 89.97 38.846 88.934 39.938 88.178C41.058 87.394 42.318 87.002 43.718 87.002H68.414ZM102.498 87.002L100.146 93.512H80.616L79.44 96.746H94.308C95.428 96.746 96.31 97.208 96.954 98.132C97.626 99.056 97.766 100.05 97.374 101.114L94.602 108.758C94.126 110.074 93.328 111.11 92.208 111.866C91.116 112.622 89.87 113 88.47 113H63.774L66.126 106.49H85.656L86.832 103.256H71.964C70.844 103.256 69.948 102.794 69.276 101.87C68.632 100.946 68.506 99.952 68.898 98.888L71.67 91.286C72.146 89.97 72.93 88.934 74.022 88.178C75.142 87.394 76.402 87.002 77.802 87.002H102.498ZM97.858 113L105.754 91.286C106.23 89.97 107.014 88.934 108.106 88.178C109.226 87.394 110.486 87.002 111.886 87.002H136.582L127.132 113H117.346L119.74 106.49H109.996L107.602 113H97.858ZM114.7 93.512L112.348 100.022H122.092L124.444 93.512H114.7ZM131.942 113L141.392 87.002H166.004C167.124 87.002 168.006 87.464 168.65 88.388C169.294 89.312 169.42 90.306 169.028 91.37L166.256 98.972C165.78 100.288 164.982 101.338 163.862 102.122C162.77 102.878 161.538 103.256 160.166 103.256H145.214L141.686 113H131.942ZM146.894 97.628H157.436L158.906 93.512H148.406L146.894 97.628Z" fill="white"/>
</svg>
