<svg width="141" height="27" viewBox="0 0 141 27" fill="none" xmlns="http://www.w3.org/2000/svg">
<path d="M39.414 0.501999L37.062 7.012H17.532L16.356 10.246H31.224C32.344 10.246 33.226 10.708 33.87 11.632C34.542 12.556 34.682 13.55 34.29 14.614L31.518 22.258C31.042 23.574 30.244 24.61 29.124 25.366C28.032 26.122 26.786 26.5 25.386 26.5H0.69L3.042 19.99H22.572L23.748 16.756H8.88C7.76 16.756 6.864 16.294 6.192 15.37C5.548 14.446 5.422 13.452 5.814 12.388L8.586 4.786C9.062 3.47 9.846 2.434 10.938 1.678C12.058 0.893999 13.318 0.501999 14.718 0.501999H39.414ZM73.498 0.501999L71.146 7.012H51.616L50.44 10.246H65.308C66.428 10.246 67.31 10.708 67.954 11.632C68.626 12.556 68.766 13.55 68.374 14.614L65.602 22.258C65.126 23.574 64.328 24.61 63.208 25.366C62.116 26.122 60.87 26.5 59.47 26.5H34.774L37.126 19.99H56.656L57.832 16.756H42.964C41.844 16.756 40.948 16.294 40.276 15.37C39.632 14.446 39.506 13.452 39.898 12.388L42.67 4.786C43.146 3.47 43.93 2.434 45.022 1.678C46.142 0.893999 47.402 0.501999 48.802 0.501999H73.498ZM68.858 26.5L76.754 4.786C77.23 3.47 78.014 2.434 79.106 1.678C80.226 0.893999 81.486 0.501999 82.886 0.501999H107.582L98.132 26.5H88.346L90.74 19.99H80.996L78.602 26.5H68.858ZM85.7 7.012L83.348 13.522H93.092L95.444 7.012H85.7ZM102.942 26.5L112.392 0.501999H137.004C138.124 0.501999 139.006 0.963999 139.65 1.888C140.294 2.812 140.42 3.806 140.028 4.87L137.256 12.472C136.78 13.788 135.982 14.838 134.862 15.622C133.77 16.378 132.538 16.756 131.166 16.756H116.214L112.686 26.5H102.942ZM117.894 11.128H128.436L129.906 7.012H119.406L117.894 11.128Z" fill="white"/>
</svg>
